<svg xmlns="http://www.w3.org/2000/svg" viewBox="0 0 288 64" role="img" aria-label="Propiedades">
  <defs>
    <linearGradient id="copper-lockup" x1="0%" y1="0%" x2="100%" y2="100%">
      <stop offset="0%" stop-color="#D67E3C"/>
      <stop offset="100%" stop-color="#A83810"/>
    </linearGradient>
  </defs>
  <g>
    <rect width="64" height="64" rx="14" fill="url(#copper-lockup)"/>
    <g transform="translate(12 12) scale(1.667)" fill="none" stroke="#FFF7F0" stroke-width="2" stroke-linecap="round" stroke-linejoin="round">
      <path d="M10 12h4"/>
      <path d="M10 8h4"/>
      <path d="M14 21v-3a2 2 0 0 0-4 0v3"/>
      <path d="M6 10H4a2 2 0 0 0-2 2v7a2 2 0 0 0 2 2h16a2 2 0 0 0 2-2V9a2 2 0 0 0-2-2h-2"/>
      <path d="M6 21V5a2 2 0 0 1 2-2h8a2 2 0 0 1 2 2v16"/>
    </g>
  </g>
  <text x="84" y="32" font-family="Plus Jakarta Sans, ui-sans-serif, system-ui, -apple-system, Segoe UI, Roboto, sans-serif" font-size="30" font-weight="700" letter-spacing="-0.02em" fill="#24160D" dominant-baseline="central">Propiedades</text>
</svg>
